<svg width="57" height="56" viewBox="0 0 57 56" fill="none" xmlns="http://www.w3.org/2000/svg">
<path fill-rule="evenodd" clip-rule="evenodd" d="M44.7955 24.66C44.4802 27.4794 42.3493 28.7375 35.8364 30.5341L35.8826 11.0617H44.7955V24.66ZM41.2396 21.4686H39.0229V24.5675H41.2396V21.4686ZM39.0229 15.2707H41.2396V18.1846H39.0229V15.2707Z" fill="#E15D1C"/>
<path d="M24.2261 46.0754C23.6857 51.5162 21.5769 53.4976 16.7755 55.0802H38.4876C35.4392 54.0733 34.0043 53.1794 32.1796 50.235C31.2759 47.8678 31.1127 46.6213 31.2654 44.3384C31.7707 41.1281 32.5249 39.7202 34.5565 37.8019C36.209 36.7913 37.1886 36.4408 39.4932 36.5221C40.2581 36.5922 40.5708 36.7397 40.9559 37.162C41.7522 38.5108 42.3193 39.1054 43.4242 40.0417C46.0877 41.1861 47.5997 41.2632 50.3264 40.4988C49.6582 39.3357 49.2995 38.6745 48.3609 37.6648C47.1839 36.3564 46.4372 35.8731 44.9326 35.5165C43.6451 35.2666 42.6889 35.347 40.9559 35.5165C39.5774 35.2835 38.7542 35.2734 37.2534 35.3336C38.5057 34.7294 39.1671 34.466 40.316 34.0537C43.1977 33.1975 44.7643 32.9028 47.5381 32.4539C49.8972 33.2366 51.1179 33.2549 53.1604 32.7282C55.1157 31.7033 56.0052 31.0106 57 29.4371C55.2 28.4224 54.053 28.2637 51.3777 28.6143C49.6898 29.2164 48.8326 29.7578 47.5381 31.0826C46.0317 31.6357 44.9791 31.9569 42.7386 31.9968C44.0178 31.1402 44.6951 30.6161 45.8468 29.6199C46.8391 28.5372 47.4233 27.8371 48.5437 26.3288C50.7365 25.1813 51.692 24.3275 52.749 22.3063C53.5432 19.9373 53.6963 18.6237 53.2061 16.3184C51.3734 16.8633 50.3503 17.4627 48.5437 19.838C47.5561 21.5767 47.3068 22.8494 47.4467 25.6889C46.3151 27.5158 45.5156 28.4455 43.4242 29.9856C40.8055 31.2153 39.1887 31.7973 36.1564 32.7282C33.9664 33.5781 32.6888 34.5778 30.3512 36.9792C28.9692 39.0302 28.354 40.281 27.4715 42.6472C27.0441 41.0818 26.7318 40.2581 25.9631 38.9447C24.8997 37.1363 24.2349 36.2165 22.7634 34.9679C21.6948 33.8484 20.9781 33.32 19.6095 32.4539C17.911 31.5794 17.2172 30.8896 16.0898 29.5742C15.4102 28.2597 15.2666 27.5186 15.3128 26.1917C17.0816 24.6501 17.6209 23.6357 18.101 21.6664C18.3138 20.0206 18.2158 19.1545 17.7354 17.6897C15.6843 18.7899 14.8025 19.6705 13.9415 21.9407C13.6569 23.1321 13.7545 24.014 14.2157 25.826C14.2398 26.1235 14.3627 26.6054 14.2614 27.6544C13.5732 26.7002 13.397 26.3886 12.8444 25.3689C12.1027 23.8219 11.891 22.8676 11.7931 21.0265C11.8352 19.5707 11.8655 18.7571 12.2045 17.4154C13.5347 16.2011 14.205 15.4867 14.9014 13.8501C15.5241 11.8487 15.8489 10.4948 15.1299 7.77066C13.1354 8.61747 12.249 9.47917 11.0617 11.976C10.4996 14.3082 10.6348 15.3698 11.1989 17.0954C10.8679 18.3505 10.9645 18.9149 10.6961 19.9294C10.3474 19.1845 9.98176 18.8106 9.46191 18.0553C9.30097 16.1282 8.7269 15.1911 7.35926 13.6215C6.04713 12.4901 5.14034 12.0984 3.24539 11.7931C3.41777 13.5613 3.73058 14.4578 4.52526 15.9527C5.84786 17.8208 6.74515 18.4822 8.63913 18.9238C9.43437 19.9549 9.76706 20.595 10.239 21.8035C10.8026 24.4337 11.3317 25.8465 12.5245 28.2943C11.1392 27.4353 10.3823 26.9163 9.14194 25.7803C8.62475 24.676 8.48839 24.1264 7.86207 23.4034C6.72641 21.8359 5.92437 21.2297 4.20529 20.6151C2.92971 20.1813 2.32097 19.9232 0 19.9752C0.179893 20.6206 0.306017 21.0155 0.594226 21.8035C1.15937 23.0846 1.62986 23.8976 3.47394 25.4146C4.87142 26.506 5.88083 26.7079 7.86207 26.7402L9.69046 27.8829C12.0555 29.2671 13.2435 30.1544 15.267 31.814C14.081 31.8242 13.4002 31.7767 12.1131 31.4483C11.108 30.9724 10.5398 30.7067 9.4162 30.2598C7.85425 29.6894 6.91292 29.7034 5.1652 30.077C3.29161 30.4969 2.28971 31.1804 0.594226 33.2767C1.34832 33.8068 1.81774 34.0487 2.74258 34.3737C2.73965 34.4387 5.5509 35.1348 7.26784 34.6937C8.98478 34.2525 11.3201 32.5764 11.336 32.4539C11.376 32.3243 14.6712 32.8682 16.4555 33.9623C18.3627 34.9758 19.2684 35.7761 20.7522 37.3905C19.3029 36.669 18.4492 36.3523 16.7755 36.1107C15.0837 35.8806 14.0832 35.9802 12.1131 36.9792C10.2089 38.1739 9.62541 39.2915 8.82197 41.5044C11.1167 41.9292 12.4031 41.8865 14.3986 41.0473C15.3157 40.6388 15.7774 40.2764 16.5469 39.4932C17.2939 38.3314 17.6917 38.0473 18.3753 37.9848C19.0172 38.0188 19.3524 38.0882 19.8837 38.3505C22.919 40.463 23.8581 42.1363 24.2261 46.0754Z" fill="#497620"/>
<path fill-rule="evenodd" clip-rule="evenodd" d="M27.8829 36.8877C25.8842 33.0522 24.351 31.3417 20.7522 29.2085L20.7979 4.66239L27.3801 0L33.688 4.66239V31.3111C31.0716 32.8998 29.7314 34.0044 27.8829 36.8877ZM30.6712 21.7578H28.34V25.0489H30.6712V21.7578ZM23.8605 18.8324H26.3288V15.5413H23.8605V18.8324ZM30.7626 8.22775H28.2486V11.5188H30.7626V8.22775Z" fill="#ED991A"/>
</svg>
