<svg width="119" height="46" viewBox="0 0 119 46" fill="none" xmlns="http://www.w3.org/2000/svg">
<path d="M52.6603 15.8678H51.2014C51.1152 15.4447 50.9642 15.073 50.7486 14.7527C50.5368 14.4323 50.278 14.1635 49.9721 13.946C49.6702 13.7245 49.3348 13.5584 48.9663 13.4478C48.5976 13.337 48.2133 13.2817 47.8133 13.2817C47.0839 13.2817 46.4231 13.4675 45.8311 13.8392C45.2428 14.2109 44.7742 14.7586 44.4252 15.4823C44.0801 16.2058 43.9075 17.0936 43.9075 18.1455C43.9075 19.1972 44.0801 20.085 44.4252 20.8087C44.7742 21.5323 45.2428 22.0799 45.8311 22.4516C46.4231 22.8234 47.0839 23.0092 47.8133 23.0092C48.2133 23.0092 48.5976 22.9538 48.9663 22.8432C49.3348 22.7324 49.6702 22.5683 49.9721 22.3508C50.278 22.1294 50.5368 21.8585 50.7486 21.5382C50.9642 21.214 51.1152 20.8422 51.2014 20.4231H52.6603C52.5504 21.0439 52.3504 21.5995 52.0603 22.0899C51.7701 22.5802 51.4093 22.9973 50.9779 23.3414C50.5466 23.6815 50.0623 23.9405 49.5251 24.1184C48.9917 24.2963 48.4211 24.3853 47.8133 24.3853C46.7859 24.3853 45.8722 24.1322 45.0723 23.6261C44.2723 23.1199 43.6428 22.4003 43.184 21.467C42.7253 20.5338 42.4958 19.4267 42.4958 18.1455C42.4958 16.8643 42.7253 15.757 43.184 14.8238C43.6428 13.8906 44.2723 13.1709 45.0723 12.6648C45.8722 12.1586 46.7859 11.9056 47.8133 11.9056C48.4211 11.9056 48.9917 11.9945 49.5251 12.1725C50.0623 12.3505 50.5466 12.6115 50.9779 12.9554C51.4093 13.2955 51.7701 13.7107 52.0603 14.2011C52.3504 14.6874 52.5504 15.243 52.6603 15.8678ZM56.4763 12.0716V24.2192H55.0175V12.0716H56.4763ZM59.4012 24.2192V12.0716H63.4717C64.4128 12.0716 65.1854 12.2338 65.7893 12.558C66.3932 12.8784 66.8402 13.3192 67.1304 13.8807C67.4207 14.4423 67.5658 15.0809 67.5658 15.7966C67.5658 16.5123 67.4207 17.147 67.1304 17.7006C66.8402 18.2542 66.3952 18.6891 65.7952 19.0055C65.1952 19.3179 64.4286 19.4741 63.4953 19.4741H60.2012V18.1455H63.4482C64.0913 18.1455 64.609 18.0505 65.0011 17.8608C65.3972 17.6709 65.6834 17.402 65.8599 17.0541C66.0403 16.7022 66.1305 16.283 66.1305 15.7966C66.1305 15.3102 66.0403 14.8851 65.8599 14.5213C65.6795 14.1576 65.3913 13.8768 64.9952 13.6791C64.5991 13.4774 64.0756 13.3765 63.4247 13.3765H60.8601V24.2192H59.4012ZM65.0717 18.7623L68.0363 24.2192H66.3422L63.4247 18.7623H65.0717ZM79.6904 15.8678H78.2316C78.1453 15.4447 77.9943 15.073 77.7787 14.7527C77.5669 14.4323 77.3081 14.1635 77.0022 13.946C76.7003 13.7245 76.365 13.5584 75.9964 13.4478C75.6277 13.337 75.2434 13.2817 74.8434 13.2817C74.1141 13.2817 73.4533 13.4675 72.8612 13.8392C72.2729 14.2109 71.8043 14.7586 71.4553 15.4823C71.1103 16.2058 70.9377 17.0936 70.9377 18.1455C70.9377 19.1972 71.1103 20.085 71.4553 20.8087C71.8043 21.5323 72.2729 22.0799 72.8612 22.4516C73.4533 22.8234 74.1141 23.0092 74.8434 23.0092C75.2434 23.0092 75.6277 22.9538 75.9964 22.8432C76.365 22.7324 76.7003 22.5683 77.0022 22.3508C77.3081 22.1294 77.5669 21.8585 77.7787 21.5382C77.9943 21.214 78.1453 20.8422 78.2316 20.4231H79.6904C79.5805 21.0439 79.3806 21.5995 79.0904 22.0899C78.8002 22.5802 78.4394 22.9973 78.0081 23.3414C77.5767 23.6815 77.0924 23.9405 76.5552 24.1184C76.0219 24.2963 75.4512 24.3853 74.8434 24.3853C73.816 24.3853 72.9023 24.1322 72.1024 23.6261C71.3024 23.1199 70.673 22.4003 70.2142 21.467C69.7554 20.5338 69.526 19.4267 69.526 18.1455C69.526 16.8643 69.7554 15.757 70.2142 14.8238C70.673 13.8906 71.3024 13.1709 72.1024 12.6648C72.9023 12.1586 73.816 11.9056 74.8434 11.9056C75.4512 11.9056 76.0219 11.9945 76.5552 12.1725C77.0924 12.3505 77.5767 12.6115 78.0081 12.9554C78.4394 13.2955 78.8002 13.7107 79.0904 14.2011C79.3806 14.6874 79.5805 15.243 79.6904 15.8678ZM89.9537 12.0716H91.4122V20.1147C91.4122 20.945 91.2176 21.6865 90.83 22.339C90.4457 22.9875 89.9024 23.4996 89.2001 23.8752C88.4986 24.2469 87.6753 24.4328 86.7295 24.4328C85.7845 24.4328 84.9613 24.2469 84.2598 23.8752C83.5575 23.4996 83.0125 22.9875 82.6241 22.339C82.2399 21.6865 82.0477 20.945 82.0477 20.1147V12.0716H83.5061V19.9961C83.5061 20.5892 83.6361 21.1171 83.8945 21.5797C84.1538 22.0384 84.5223 22.4003 85.0002 22.6652C85.483 22.9262 86.0595 23.0567 86.7295 23.0567C87.4004 23.0567 87.9768 22.9262 88.4596 22.6652C88.9417 22.4003 89.3102 22.0384 89.5653 21.5797C89.8237 21.1171 89.9537 20.5892 89.9537 19.9961V12.0716ZM95.7843 12.0716V24.2192H94.325V12.0716H95.7843ZM98.0503 13.3765V12.0716H107.085V13.3765H103.297V24.2192H101.839V13.3765H98.0503ZM119 18.1455C119 19.4267 118.771 20.5338 118.312 21.467C117.853 22.4003 117.223 23.1199 116.423 23.6261C115.623 24.1322 114.71 24.3853 113.682 24.3853C112.655 24.3853 111.741 24.1322 110.941 23.6261C110.141 23.1199 109.512 22.4003 109.053 21.467C108.594 20.5338 108.365 19.4267 108.365 18.1455C108.365 16.8643 108.594 15.757 109.053 14.8238C109.512 13.8906 110.141 13.1709 110.941 12.6648C111.741 12.1586 112.655 11.9056 113.682 11.9056C114.71 11.9056 115.623 12.1586 116.423 12.6648C117.223 13.1709 117.853 13.8906 118.312 14.8238C118.771 15.757 119 16.8643 119 18.1455ZM117.588 18.1455C117.588 17.0936 117.413 16.2058 117.064 15.4823C116.719 14.7586 116.25 14.2109 115.658 13.8392C115.07 13.4675 114.412 13.2817 113.682 13.2817C112.952 13.2817 112.292 13.4675 111.7 13.8392C111.111 14.2109 110.643 14.7586 110.294 15.4823C109.948 16.2058 109.776 17.0936 109.776 18.1455C109.776 19.1972 109.948 20.085 110.294 20.8087C110.643 21.5323 111.111 22.0799 111.7 22.4516C112.292 22.8234 112.952 23.0092 113.682 23.0092C114.412 23.0092 115.07 22.8234 115.658 22.4516C116.25 22.0799 116.719 21.5323 117.064 20.8087C117.413 20.085 117.588 19.1972 117.588 18.1455Z" fill="#FF9F0F"/>
<path d="M59.8254 36.7464H57.5948V29.4579H59.9242C60.6254 29.4579 61.2253 29.6038 61.7242 29.8956C62.223 30.1851 62.6053 30.6014 62.8711 31.1448C63.1371 31.6857 63.27 32.3334 63.27 33.0879C63.27 33.8471 63.1358 34.5008 62.8677 35.0488C62.5994 35.5945 62.2088 36.0145 61.6959 36.3087C61.183 36.6005 60.5594 36.7464 59.8254 36.7464ZM58.4701 35.9635H59.7689C60.3665 35.9635 60.8618 35.8472 61.2547 35.6147C61.6477 35.3822 61.9406 35.0512 62.1335 34.6218C62.3265 34.1924 62.4229 33.681 62.4229 33.0879C62.4229 32.4995 62.3277 31.9929 62.1371 31.5683C61.9465 31.1413 61.6618 30.8138 61.283 30.5861C60.9041 30.3559 60.4324 30.2408 59.8677 30.2408H58.4701V35.9635ZM64.6949 36.7464H63.7773L66.4314 29.4579H67.3349L69.9889 36.7464H69.0713L66.9113 30.6109H66.8548L64.6949 36.7464ZM65.0338 33.8993H68.7325V34.6823H65.0338V33.8993ZM73.5147 30.2408V29.4579H78.9357V30.2408H76.6629V36.7464H75.7876V30.2408H73.5147ZM80.2865 36.7464V29.4579H84.6491V30.2408H81.1618V32.7036H84.423V33.4865H81.1618V35.9635H84.7054V36.7464H80.2865ZM86.2268 36.7464V29.4579H88.6684C89.2332 29.4579 89.697 29.5551 90.0589 29.7497C90.4217 29.9419 90.69 30.2064 90.864 30.5433C91.0379 30.8803 91.1249 31.2634 91.1249 31.6929C91.1249 32.1223 91.0379 32.503 90.864 32.8353C90.69 33.1674 90.4225 33.4284 90.0631 33.6182C89.7028 33.8056 89.2432 33.8993 88.6825 33.8993H86.7063V33.1022H88.6543C89.0402 33.1022 89.3508 33.0452 89.586 32.9313C89.8237 32.8175 89.996 32.6561 90.1012 32.4473C90.2097 32.2361 90.2643 31.9847 90.2643 31.6929C90.2643 31.401 90.2097 31.1459 90.1012 30.9277C89.9935 30.7094 89.8204 30.541 89.5827 30.4224C89.345 30.3014 89.0311 30.2408 88.6402 30.2408H87.1014V36.7464H86.2268ZM89.6283 33.4722L91.4073 36.7464H90.3911L88.6402 33.4722H89.6283ZM92.5833 36.7464V29.4579H95.0257C95.5906 29.4579 96.0544 29.5551 96.4163 29.7497C96.7791 29.9419 97.0466 30.2064 97.2213 30.5433C97.3953 30.8803 97.4822 31.2634 97.4822 31.6929C97.4822 32.1223 97.3953 32.503 97.2213 32.8353C97.0466 33.1674 96.7799 33.4284 96.4196 33.6182C96.0602 33.8056 95.5997 33.8993 95.0398 33.8993H93.0637V33.1022H95.0117C95.3976 33.1022 95.7082 33.0452 95.9434 32.9313C96.1811 32.8175 96.3525 32.6561 96.4585 32.4473C96.567 32.2361 96.6209 31.9847 96.6209 31.6929C96.6209 31.401 96.567 31.1459 96.4585 30.9277C96.3509 30.7094 96.1778 30.541 95.9401 30.4224C95.7024 30.3014 95.3885 30.2408 94.9976 30.2408H93.4588V36.7464H92.5833ZM95.9856 33.4722L97.7646 36.7464H96.7484L94.9976 33.4722H95.9856ZM99.2372 36.7464H98.3195L100.974 29.4579H101.878L104.531 36.7464H103.613L101.453 30.6109H101.397L99.2372 36.7464ZM99.5759 33.8993H103.275V34.6823H99.5759V33.8993Z" fill="#FF5400"/>
<path fill-rule="evenodd" clip-rule="evenodd" d="M37.1002 20.5947C36.8391 22.9493 35.0742 24 29.6802 25.5004L29.7184 9.23814H37.1002V20.5947ZM34.1552 17.9294H32.3193V20.5174H34.1552V17.9294ZM32.3193 12.7533H34.1552V15.1868H32.3193V12.7533Z" fill="#E15D1C"/>
<path d="M20.0644 38.4797C19.6168 43.0235 17.8703 44.6783 13.8937 46H31.8759C29.3512 45.1591 28.1628 44.4126 26.6515 41.9536C25.9031 39.9766 25.7679 38.9356 25.8944 37.029C26.3129 34.348 26.9375 33.1722 28.6201 31.5701C29.9887 30.7261 30.8 30.4334 32.7087 30.5013C33.3422 30.5598 33.6012 30.683 33.9202 31.0357C34.5797 32.1621 35.0494 32.6587 35.9644 33.4407C38.1704 34.3964 39.4227 34.4608 41.6809 33.8224C41.1275 32.851 40.8304 32.2988 40.0531 31.4556C39.0783 30.3629 38.4599 29.9593 37.2137 29.6615C36.1474 29.4528 35.3555 29.5199 33.9202 29.6615C32.7785 29.4669 32.0967 29.4584 30.8537 29.5087C31.8909 29.0041 32.4387 28.7841 33.3902 28.4398C35.7769 27.7248 37.0743 27.4786 39.3716 27.1037C41.3255 27.7574 42.3365 27.7727 44.0281 27.3328C45.6475 26.4769 46.3842 25.8984 47.2081 24.5843C45.7173 23.7368 44.7674 23.6043 42.5516 23.8971C41.1537 24.4 40.4438 24.8521 39.3716 25.9585C38.124 26.4204 37.2522 26.6887 35.3966 26.722C36.4561 26.0066 37.017 25.5689 37.9709 24.7369C38.7927 23.8327 39.2766 23.248 40.2045 21.9884C42.0206 21.0301 42.8119 20.317 43.6874 18.629C44.3451 16.6506 44.4719 15.5535 44.0659 13.6282C42.5481 14.0833 41.7007 14.5839 40.2045 16.5676C39.3865 18.0197 39.1801 19.0826 39.2959 21.454C38.3587 22.9797 37.6966 23.7561 35.9644 25.0423C33.7956 26.0693 32.4566 26.5554 29.9452 27.3328C28.1314 28.0426 27.0733 28.8775 25.1372 30.883C23.9926 32.5959 23.4831 33.6405 22.7522 35.6166C22.3983 34.3093 22.1396 33.6214 21.503 32.5245C20.6222 31.0142 20.0716 30.2461 18.8529 29.2033C17.9679 28.2683 17.3743 27.8271 16.2408 27.1037C14.8341 26.3734 14.2595 25.7973 13.3258 24.6988C12.7629 23.601 12.644 22.982 12.6822 21.8739C14.1472 20.5864 14.5938 19.7393 14.9915 18.0946C15.1677 16.7201 15.0865 15.9968 14.6887 14.7735C12.9899 15.6923 12.2596 16.4277 11.5465 18.3237C11.3108 19.3187 11.3916 20.0552 11.7736 21.5685C11.7936 21.8169 11.8954 22.2194 11.8115 23.0955C11.2415 22.2986 11.0956 22.0383 10.6379 21.1867C10.0236 19.8948 9.84827 19.0978 9.76719 17.5602C9.80206 16.3444 9.82715 15.6649 10.1079 14.5444C11.2096 13.5303 11.7648 12.9337 12.3415 11.5669C12.8572 9.89539 13.1263 8.76469 12.5308 6.48963C10.8789 7.19684 10.1448 7.91649 9.16143 10.0017C8.6959 11.9494 8.80787 12.836 9.27507 14.2771C9.00093 15.3253 9.08093 15.7967 8.85864 16.644C8.56984 16.0219 8.26702 15.7096 7.83647 15.0788C7.70318 13.4694 7.22772 12.6868 6.09503 11.3759C5.00831 10.4311 4.25729 10.1039 2.68787 9.84896C2.83064 11.3257 3.08971 12.0744 3.74788 13.3228C4.84327 14.883 5.58641 15.4353 7.15503 15.8041C7.81366 16.6652 8.0892 17.1998 8.48006 18.2091C8.94684 20.4057 9.38505 21.5856 10.3729 23.6299C9.22562 22.9125 8.59875 22.479 7.57147 21.5303C7.14312 20.6081 7.03019 20.1491 6.51146 19.5453C5.57089 18.2362 4.90664 17.7299 3.48287 17.2166C2.42642 16.8543 1.92226 16.6388 0 16.6822C0.14899 17.2212 0.253447 17.551 0.492145 18.2091C0.960204 19.279 1.34987 19.958 2.87716 21.2249C4.03457 22.1364 4.87057 22.305 6.51146 22.332L8.02576 23.2863C9.98451 24.4423 10.9684 25.1833 12.6443 26.5693C11.6621 26.5778 11.0982 26.5382 10.0322 26.2639C9.19978 25.8665 8.72919 25.6446 7.79861 25.2713C6.50498 24.795 5.72536 24.8067 4.27788 25.1187C2.72615 25.4694 1.89637 26.0402 0.492145 27.7909C1.1167 28.2336 1.50547 28.4356 2.27144 28.7071C2.26901 28.7613 4.59732 29.3427 6.01931 28.9743C7.4413 28.6058 9.37544 27.206 9.38861 27.1037C9.42174 26.9955 12.1509 27.4497 13.6286 28.3635C15.2082 29.2099 15.9583 29.8783 17.1872 31.2265C15.9869 30.624 15.2799 30.3595 13.8937 30.1577C12.4925 29.9655 11.6639 30.0487 10.0322 30.883C8.45514 31.8808 7.97188 32.8141 7.30646 34.6622C9.20699 35.017 10.2724 34.9813 11.9251 34.2805C12.6846 33.9393 13.067 33.6367 13.7043 32.9826C14.323 32.0123 14.6525 31.775 15.2186 31.7228C15.7503 31.7512 16.0279 31.8092 16.4679 32.0283C18.9818 33.7925 19.7596 35.19 20.0644 38.4797Z" fill="#497620"/>
<path fill-rule="evenodd" clip-rule="evenodd" d="M23.093 30.8066C21.4376 27.6034 20.1678 26.1749 17.1873 24.3934L17.2251 3.89378L22.6766 0L27.9008 3.89378V26.1493C25.7339 27.4761 24.6239 28.3986 23.093 30.8066ZM25.4023 18.1709H23.4716V20.9195H25.4023V18.1709ZM19.7616 15.7278H21.8059V12.9793H19.7616V15.7278ZM25.478 6.87137H23.3959V9.61988H25.478V6.87137Z" fill="#ED991A"/>
</svg>
